<?xml version="1.0" encoding="UTF-8"?>
<svg version="1.1" xmlns="http://www.w3.org/2000/svg" width="512" height="512">
<path d="M0 0 C0.89847656 0.68578125 1.79695313 1.3715625 2.72265625 2.078125 C19.98167788 15.53523854 36.07918892 31.32882136 49 49 C49.47356934 49.63454102 49.94713867 50.26908203 50.43505859 50.92285156 C76.9401429 86.51314917 93.35798675 128.00692456 99 172 C99.13038162 173.00386749 99.13038162 173.00386749 99.26339722 174.02801514 C99.94785735 179.68165419 100.18875037 185.26499557 100.23828125 190.95703125 C100.2480751 191.88975357 100.25786896 192.82247589 100.26795959 193.78346252 C100.4405989 214.50093104 100.30428596 234.6400442 96 255 C95.78037598 256.04188477 95.56075195 257.08376953 95.33447266 258.15722656 C85.06338803 305.24575182 62.16993973 347.1730975 29 382 C28.14462646 382.898396 28.14462646 382.898396 27.27197266 383.81494141 C19.26899888 392.15810078 11.05020159 399.80345187 1.75927734 406.68945312 C-0.02412413 408.01797091 -1.78409516 409.37360037 -3.54296875 410.734375 C-13.16866112 418.09366971 -23.36859138 424.20769954 -34 430 C-34.6604834 430.3619043 -35.3209668 430.72380859 -36.00146484 431.09667969 C-63.71952218 446.10075631 -93.8523487 454.84933816 -125 459 C-125.73138184 459.103125 -126.46276367 459.20625 -127.21630859 459.3125 C-150.74257626 462.17843646 -176.77185297 461.3790769 -200 457 C-201.5778125 456.70996094 -201.5778125 456.70996094 -203.1875 456.4140625 C-243.19429059 448.84268391 -281.05332767 432.38993172 -313 407 C-313.89589844 406.29617188 -314.79179687 405.59234375 -315.71484375 404.8671875 C-323.1352791 398.92658072 -330.11158694 392.54195442 -337 386 C-338.24136719 384.82244141 -338.24136719 384.82244141 -339.5078125 383.62109375 C-344.64700179 378.61620383 -349.26470517 373.301137 -353.69433594 367.66064453 C-354.61993306 366.48339853 -355.55081762 365.31030101 -356.48535156 364.14013672 C-364.89677952 353.59086894 -372.34965643 342.74141221 -379 331 C-379.46148437 330.18547363 -379.92296875 329.37094727 -380.3984375 328.53173828 C-395.64369958 301.27872661 -405.18975305 271.82446386 -410 241 C-410.11714355 240.28408691 -410.23428711 239.56817383 -410.35498047 238.83056641 C-420.49209684 174.28741088 -401.60079776 105.6591109 -363.69189453 53.18945312 C-360.8963153 49.37759734 -357.9880619 45.66296729 -355 42 C-354.54689453 41.44393066 -354.09378906 40.88786133 -353.62695312 40.31494141 C-342.91727859 27.28043011 -331.2988701 15.40692591 -318 5 C-317.25105469 4.37222656 -316.50210938 3.74445312 -315.73046875 3.09765625 C-302.994293 -7.51220736 -288.67054723 -16.33548307 -274 -24 C-273.25540527 -24.39396973 -272.51081055 -24.78793945 -271.74365234 -25.19384766 C-249.3614981 -36.89266165 -224.85840423 -44.70579069 -200 -49 C-199.12472656 -49.16081055 -198.24945313 -49.32162109 -197.34765625 -49.48730469 C-128.56370046 -61.73408096 -54.93605908 -42.55538055 0 0 Z " fill="#003398" transform="translate(412,52)"/>
<path d="M0 0 C3.29153357 2.63134059 4.03105648 5.59691781 5.1875 9.5625 C5.53167969 10.71878906 5.87585938 11.87507813 6.23046875 13.06640625 C7 16 7 16 7 18 C13.6 18 20.2 18 27 18 C27 18.66 27 19.32 27 20 C24.74185152 21.79826445 22.48722261 23.4746801 20.125 25.125 C19.47402344 25.59292969 18.82304687 26.06085938 18.15234375 26.54296875 C13.26412172 30 13.26412172 30 11 30 C11.63228516 31.66289062 11.63228516 31.66289062 12.27734375 33.359375 C12.830846 34.82287248 13.38422496 36.2864166 13.9375 37.75 C14.21529297 38.47960937 14.49308594 39.20921875 14.77929688 39.9609375 C15.04677734 40.66992188 15.31425781 41.37890625 15.58984375 42.109375 C15.95903931 43.08342285 15.95903931 43.08342285 16.33569336 44.07714844 C17.01125435 46.032576 17.52800046 47.98665757 18 50 C13.38042614 47.94564833 9.68877594 44.70694167 5.75390625 41.58203125 C3.17476925 39.8013875 3.17476925 39.8013875 0.546875 39.9765625 C-2.81627187 41.32801109 -5.49794274 43.32932152 -8.3125 45.5625 C-8.86228516 45.98724609 -9.41207031 46.41199219 -9.97851562 46.84960938 C-11.3251827 47.89181259 -12.66346201 48.94483843 -14 50 C-14.66 49.67 -15.32 49.34 -16 49 C-15.44119141 47.33710938 -15.44119141 47.33710938 -14.87109375 45.640625 C-14.3926862 44.17726073 -13.9148515 42.7137091 -13.4375 41.25 C-13.19064453 40.52039063 -12.94378906 39.79078125 -12.68945312 39.0390625 C-12.46064453 38.33007812 -12.23183594 37.62109375 -11.99609375 36.890625 C-11.67402954 35.91657715 -11.67402954 35.91657715 -11.34545898 34.92285156 C-10.92307143 32.57180962 -11.11992258 31.21914122 -12 29 C-13.38353359 27.57880614 -13.38353359 27.57880614 -15.16015625 26.45703125 C-16.1027832 25.80637695 -16.1027832 25.80637695 -17.06445312 25.14257812 C-17.72380859 24.70365234 -18.38316406 24.26472656 -19.0625 23.8125 C-21.39235754 22.22982709 -23.7013204 20.62835497 -26 19 C-26 18.67 -26 18.34 -26 18 C-19.07 18 -12.14 18 -5 18 C-4.34 15.03 -3.68 12.06 -3 9 C-2.49222842 7.30199321 -1.95929798 5.61071693 -1.375 3.9375 C-1.11460937 3.18339844 -0.85421875 2.42929687 -0.5859375 1.65234375 C-0.39257812 1.10707031 -0.19921875 0.56179688 0 0 Z " fill="#F2C407" transform="translate(403,314)"/>
<path d="M0 0 C2 1 2 1 3.2890625 4.59765625 C3.74360389 6.08314486 4.18695284 7.57206416 4.625 9.0625 C5.40875 11.681875 6.1925 14.30125 7 17 C13.6 17.33 20.2 17.66 27 18 C23.48022006 21.51977994 20.68948416 24.09115077 16.6875 26.8125 C15.80449219 27.41707031 14.92148438 28.02164062 14.01171875 28.64453125 C13.34785156 29.09183594 12.68398437 29.53914063 12 30 C12.91903282 35.21111161 14.60970647 40.11852005 16.2578125 45.13671875 C17 48 17 48 16 50 C11.05 46.37 6.1 42.74 1 39 C-7.55368914 44.41787108 -7.55368914 44.41787108 -16 50 C-14.56390017 43.26137773 -12.85991713 36.63370443 -11 30 C-11.99902344 29.30132812 -12.99804688 28.60265625 -14.02734375 27.8828125 C-15.330888 26.96376691 -16.63426477 26.04448374 -17.9375 25.125 C-18.59685547 24.66480469 -19.25621094 24.20460938 -19.93554688 23.73046875 C-24.88671875 20.2265625 -24.88671875 20.2265625 -26 18 C-16.1 17.505 -16.1 17.505 -6 17 C-4.39609513 11.78047191 -4.39609513 11.78047191 -2.79907227 6.55883789 C-1.11111111 1.11111111 -1.11111111 1.11111111 0 0 Z " fill="#F2C407" transform="translate(108,314)"/>
<path d="M0 0 C2 1 2 1 3.2890625 4.52734375 C3.74228263 5.99497717 4.18724847 7.46517872 4.625 8.9375 C4.96917969 10.0502832 4.96917969 10.0502832 5.3203125 11.18554688 C7 16.69952102 7 16.69952102 7 19 C13.6 19 20.2 19 27 19 C23.48022006 22.51977994 20.68948416 25.09115077 16.6875 27.8125 C15.80449219 28.41707031 14.92148437 29.02164062 14.01171875 29.64453125 C13.34785156 30.09183594 12.68398438 30.53914063 12 31 C12.54140625 32.80597656 12.54140625 32.80597656 13.09375 34.6484375 C13.5626424 36.22391596 14.03138463 37.79943912 14.5 39.375 C14.73847656 40.1690625 14.97695313 40.963125 15.22265625 41.78125 C15.44824219 42.54179687 15.67382812 43.30234375 15.90625 44.0859375 C16.11572266 44.7876709 16.32519531 45.4894043 16.54101562 46.21240234 C17 48 17 48 17 50 C13.33601701 48.31029911 10.09167428 46.12699789 6.75 43.875 C5.67234375 43.15054688 4.5946875 42.42609375 3.484375 41.6796875 C2.66453125 41.12539063 1.8446875 40.57109375 1 40 C0.26394531 40.47050781 -0.47210938 40.94101562 -1.23046875 41.42578125 C-2.20628906 42.04839844 -3.18210937 42.67101562 -4.1875 43.3125 C-5.63189453 44.23482422 -5.63189453 44.23482422 -7.10546875 45.17578125 C-9.71634303 46.82123103 -12.3469602 48.42369665 -15 50 C-14.26309887 43.51527007 -12.64681249 37.30760257 -11 31 C-11.45439453 30.67201416 -11.90878906 30.34402832 -12.37695312 30.00610352 C-14.42042022 28.52825764 -16.46024139 27.04545964 -18.5 25.5625 C-19.21542969 25.04623047 -19.93085938 24.52996094 -20.66796875 23.99804688 C-21.34472656 23.50498047 -22.02148438 23.01191406 -22.71875 22.50390625 C-23.34716797 22.04830322 -23.97558594 21.5927002 -24.62304688 21.12329102 C-25.30463867 20.56726196 -25.30463867 20.56726196 -26 20 C-26 19.67 -26 19.34 -26 19 C-19.07 19 -12.14 19 -5 19 C-4.67 16.69 -4.34 14.38 -4 12 C-3.3644775 9.83820258 -2.6786752 7.6903901 -1.9375 5.5625 C-1.57527344 4.51191406 -1.21304687 3.46132812 -0.83984375 2.37890625 C-0.56269531 1.59386719 -0.28554688 0.80882812 0 0 Z " fill="#F5C605" transform="translate(426,228)"/>
<path d="M0 0 C2.72863567 2.72863567 3.47085394 5.91006895 4.625 9.5 C4.85445312 10.18964844 5.08390625 10.87929687 5.3203125 11.58984375 C7 16.71888951 7 16.71888951 7 19 C13.6 19 20.2 19 27 19 C23.48022006 22.51977994 20.68948416 25.09115077 16.6875 27.8125 C15.80449219 28.41707031 14.92148438 29.02164062 14.01171875 29.64453125 C13.34785156 30.09183594 12.68398437 30.53914063 12 31 C12.29003906 32.03447266 12.29003906 32.03447266 12.5859375 33.08984375 C14.23238147 39.03171334 15.71485619 44.96970983 17 51 C11.59161557 47.43120211 6.25020219 43.79801861 1 40 C-7.55448446 45.41640378 -7.55448446 45.41640378 -16 51 C-14.33333333 44.33333333 -12.66666667 37.66666667 -11 31 C-11.45439453 30.67201416 -11.90878906 30.34402832 -12.37695312 30.00610352 C-14.42042022 28.52825764 -16.46024139 27.04545964 -18.5 25.5625 C-19.21542969 25.04623047 -19.93085937 24.52996094 -20.66796875 23.99804688 C-21.34472656 23.50498047 -22.02148438 23.01191406 -22.71875 22.50390625 C-23.34716797 22.04830322 -23.97558594 21.5927002 -24.62304688 21.12329102 C-25.30463867 20.56726196 -25.30463867 20.56726196 -26 20 C-26 19.67 -26 19.34 -26 19 C-16.1 18.505 -16.1 18.505 -6 18 C-4.02 12.06 -2.04 6.12 0 0 Z " fill="#F6C605" transform="translate(85,228)"/>
<path d="M0 0 C2.75446456 2.75446456 3.47404432 5.99952779 4.625 9.625 C5.40875 12.05875 6.1925 14.4925 7 17 C13.6 17.33 20.2 17.66 27 18 C23.7691952 21.2308048 20.86252908 24.04600875 17.3125 26.8125 C16.54550781 27.41707031 15.77851563 28.02164063 14.98828125 28.64453125 C13 30 13 30 11 30 C11.28049194 30.80219971 11.28049194 30.80219971 11.56665039 31.62060547 C12.40638201 34.03611354 13.23455807 36.45542692 14.0625 38.875 C14.35705078 39.71675781 14.65160156 40.55851562 14.95507812 41.42578125 C15.22900391 42.23144531 15.50292969 43.03710938 15.78515625 43.8671875 C16.04176025 44.61081543 16.29836426 45.35444336 16.56274414 46.12060547 C17 48 17 48 16 50 C11.05 46.37 6.1 42.74 1 39 C-7.55368914 44.41787108 -7.55368914 44.41787108 -16 50 C-14.38808348 43.14078075 -12.64031672 36.53792711 -10 30 C-10.54140625 29.75378906 -11.0828125 29.50757812 -11.640625 29.25390625 C-14.53939263 27.71333603 -17.09760026 25.87066436 -19.75 23.9375 C-20.73484375 23.22464844 -21.7196875 22.51179688 -22.734375 21.77734375 C-23.48203125 21.19082031 -24.2296875 20.60429688 -25 20 C-25 19.67 -25 19.34 -25 19 C-18.73 19 -12.46 19 -6 19 C-5.3503125 16.2465625 -5.3503125 16.2465625 -4.6875 13.4375 C-3.50752402 8.6895014 -2.10397292 4.40832421 0 0 Z " fill="#F4C506" transform="translate(341,81)"/>
<path d="M0 0 C2.72863567 2.72863567 3.47085394 5.91006895 4.625 9.5 C4.85445312 10.18964844 5.08390625 10.87929687 5.3203125 11.58984375 C7 16.71888951 7 16.71888951 7 19 C13.6 19 20.2 19 27 19 C23.96866467 22.03133533 21.33682928 24.33188641 17.875 26.75 C16.57175781 27.67039063 16.57175781 27.67039063 15.2421875 28.609375 C13 30 13 30 11 30 C11.18175781 30.5347998 11.36351562 31.06959961 11.55078125 31.62060547 C12.37031044 34.03769125 13.18520733 36.45631366 14 38.875 C14.28617188 39.71675781 14.57234375 40.55851562 14.8671875 41.42578125 C15.13789062 42.23144531 15.40859375 43.03710938 15.6875 43.8671875 C15.93886719 44.61081543 16.19023438 45.35444336 16.44921875 46.12060547 C17 48 17 48 17 50 C12.36257943 47.93284791 8.62761351 44.69693313 4.65625 41.58203125 C2.2344298 39.8389091 2.2344298 39.8389091 0.0390625 39.9765625 C-2.95587585 41.47976911 -5.51321648 43.48768901 -8.125 45.5625 C-13.7408953 50 -13.7408953 50 -16 50 C-14.22089072 43.24947898 -12.29561809 36.59379663 -10 30 C-10.70511719 29.75378906 -11.41023438 29.50757813 -12.13671875 29.25390625 C-15.3832122 27.83218129 -17.96229793 26.03985789 -20.8125 23.9375 C-21.78832031 23.22464844 -22.76414062 22.51179688 -23.76953125 21.77734375 C-24.50558594 21.19082031 -25.24164063 20.60429687 -26 20 C-26 19.67 -26 19.34 -26 19 C-19.4 19 -12.8 19 -6 19 C-5.566875 17.35 -5.13375 15.7 -4.6875 14 C-3.38385161 9.20133236 -1.83084088 4.62069364 0 0 Z " fill="#F7C704" transform="translate(108,143)"/>
<path d="M0 0 C2.72863567 2.72863567 3.47085394 5.91006895 4.625 9.5 C4.85445313 10.18964844 5.08390625 10.87929688 5.3203125 11.58984375 C7 16.71888951 7 16.71888951 7 19 C13.6 19 20.2 19 27 19 C23.80896523 22.19103477 20.88699761 24.65214456 17.25 27.25 C16.26515625 27.95640625 15.2803125 28.6628125 14.265625 29.390625 C13.51796875 29.92171875 12.7703125 30.4528125 12 31 C12.20496094 31.71285156 12.40992188 32.42570312 12.62109375 33.16015625 C14.10620647 38.43976749 15.39412346 43.54711116 16 49 C11.17197746 47.32253891 8.00711612 44.66993231 4.18359375 41.36328125 C2.16119042 39.83100867 2.16119042 39.83100867 0.10546875 40.0078125 C-2.94932224 41.4473615 -5.49595281 43.47397468 -8.125 45.5625 C-13.7408953 50 -13.7408953 50 -16 50 C-15.80664062 49.29875 -15.61328125 48.5975 -15.4140625 47.875 C-15.15367187 46.92625 -14.89328125 45.9775 -14.625 45 C-14.36976563 44.071875 -14.11453125 43.14375 -13.8515625 42.1875 C-12.85792899 38.46821127 -11.92611144 34.73665834 -11 31 C-11.45439453 30.67201416 -11.90878906 30.34402832 -12.37695312 30.00610352 C-14.42042022 28.52825764 -16.46024139 27.04545964 -18.5 25.5625 C-19.21542969 25.04623047 -19.93085938 24.52996094 -20.66796875 23.99804688 C-21.34472656 23.50498047 -22.02148438 23.01191406 -22.71875 22.50390625 C-23.34716797 22.04830322 -23.97558594 21.5927002 -24.62304688 21.12329102 C-25.30463867 20.56726196 -25.30463867 20.56726196 -26 20 C-26 19.67 -26 19.34 -26 19 C-19.4 19 -12.8 19 -6 19 C-5.566875 17.35 -5.13375 15.7 -4.6875 14 C-3.38385161 9.20133236 -1.83084088 4.62069364 0 0 Z " fill="#F7C704" transform="translate(341,376)"/>
<path d="M0 0 C0.66 0 1.32 0 2 0 C2.83857688 2.60258324 3.67103344 5.20685647 4.5 7.8125 C4.73847656 8.55048828 4.97695312 9.28847656 5.22265625 10.04882812 C6.19940136 13.13255196 7 15.74495809 7 19 C13.6 19 20.2 19 27 19 C23.48022006 22.51977994 20.68948416 25.09115077 16.6875 27.8125 C15.80449219 28.41707031 14.92148438 29.02164062 14.01171875 29.64453125 C13.34785156 30.09183594 12.68398437 30.53914063 12 31 C12.37253906 32.12019531 12.74507812 33.24039063 13.12890625 34.39453125 C13.60723598 35.86703648 14.08507509 37.33970115 14.5625 38.8125 C14.80935547 39.55048828 15.05621094 40.28847656 15.31054688 41.04882812 C17.11328125 46.66015625 17.11328125 46.66015625 16 50 C15.04738281 49.25492187 14.09476563 48.50984375 13.11328125 47.7421875 C11.8470775 46.78550022 10.58011004 45.82982315 9.3125 44.875 C8.68666016 44.38128906 8.06082031 43.88757813 7.41601562 43.37890625 C5.64758823 42.06415918 3.99991607 40.92639164 2 40 C-2.2388479 40.71498639 -5.40806427 43.58192753 -8.8125 46.125 C-9.78832031 46.84945312 -10.76414063 47.57390625 -11.76953125 48.3203125 C-12.87361328 49.15175781 -12.87361328 49.15175781 -14 50 C-14.97812873 46.94371936 -15.00835683 45.14722553 -14.00390625 42.109375 C-13.77509766 41.40039062 -13.54628906 40.69140625 -13.31054688 39.9609375 C-13.06369141 39.23132813 -12.81683594 38.50171875 -12.5625 37.75 C-12.31951172 37.00492187 -12.07652344 36.25984375 -11.82617188 35.4921875 C-11.22667019 33.65841765 -10.61455513 31.82877996 -10 30 C-10.54140625 29.75378906 -11.0828125 29.50757813 -11.640625 29.25390625 C-14.53939263 27.71333603 -17.09760026 25.87066436 -19.75 23.9375 C-20.73484375 23.22464844 -21.7196875 22.51179688 -22.734375 21.77734375 C-23.48203125 21.19082031 -24.2296875 20.60429687 -25 20 C-25 19.67 -25 19.34 -25 19 C-18.4 19 -11.8 19 -5 19 C-4.67 16.69 -4.34 14.38 -4 12 C-3.3644775 9.83820258 -2.6786752 7.6903901 -1.9375 5.5625 C-1.57527344 4.51191406 -1.21304688 3.46132813 -0.83984375 2.37890625 C-0.56269531 1.59386719 -0.28554687 0.80882812 0 0 Z " fill="#F7C704" transform="translate(170,376)"/>
<path d="M0 0 C3.09308516 2.55245996 3.98199617 5.2310685 5.1875 9 C5.53167969 10.051875 5.87585938 11.10375 6.23046875 12.1875 C7 15 7 15 7 18 C13.6 18 20.2 18 27 18 C23.48022006 21.51977994 20.68948416 24.09115077 16.6875 26.8125 C15.80449219 27.41707031 14.92148437 28.02164063 14.01171875 28.64453125 C13.34785156 29.09183594 12.68398438 29.53914063 12 30 C12.37253906 31.12019531 12.74507813 32.24039063 13.12890625 33.39453125 C13.60723598 34.86703648 14.08507509 36.33970115 14.5625 37.8125 C14.80935547 38.55048828 15.05621094 39.28847656 15.31054688 40.04882812 C17.11328125 45.66015625 17.11328125 45.66015625 16 49 C15.04738281 48.25492188 14.09476562 47.50984375 13.11328125 46.7421875 C11.8470775 45.78550022 10.58011004 44.82982315 9.3125 43.875 C8.68666016 43.38128906 8.06082031 42.88757813 7.41601562 42.37890625 C5.64758823 41.06415918 3.99991607 39.92639164 2 39 C-2.2388479 39.71498639 -5.40806427 42.58192753 -8.8125 45.125 C-9.78832031 45.84945312 -10.76414062 46.57390625 -11.76953125 47.3203125 C-12.87361328 48.15175781 -12.87361328 48.15175781 -14 49 C-15.4676435 45.16012771 -14.45831608 42.75977395 -13.0625 39 C-11.69063072 35.27967653 -11 33.0186559 -11 29 C-13.30557356 27.08555053 -15.51098832 25.44861675 -18 23.8125 C-20.34864309 22.22784602 -22.67892802 20.6253425 -25 19 C-25 18.67 -25 18.34 -25 18 C-18.4 18 -11.8 18 -5 18 C-4.67 15.69 -4.34 13.38 -4 11 C-3.37089121 9.0015058 -2.68638523 7.01926464 -1.9375 5.0625 C-1.57527344 4.10472656 -1.21304687 3.14695313 -0.83984375 2.16015625 C-0.56269531 1.44730469 -0.28554688 0.73445312 0 0 Z " fill="#F8C704" transform="translate(403,144)"/>
<path d="M0 0 C1.99775873 2.99663809 2.98997415 5.53662626 4.125 8.9375 C4.47820312 9.97777344 4.83140625 11.01804687 5.1953125 12.08984375 C6 15 6 15 6 19 C12.6 19 19.2 19 26 19 C22.55687411 22.44312589 20.11379744 24.79263746 16.1875 27.3125 C15.39730469 27.82425781 14.60710937 28.33601563 13.79296875 28.86328125 C13.20128906 29.23839844 12.60960937 29.61351562 12 30 C12.67069152 34.58894201 13.76122296 38.92547207 15.0625 43.375 C15.42472656 44.62023437 15.78695312 45.86546875 16.16015625 47.1484375 C16.43730469 48.08945312 16.71445312 49.03046875 17 50 C12.38042614 47.94564833 8.68877594 44.70694167 4.75390625 41.58203125 C2.17476925 39.8013875 2.17476925 39.8013875 -0.453125 39.9765625 C-3.81627187 41.32801109 -6.49794274 43.32932152 -9.3125 45.5625 C-9.86228516 45.98724609 -10.41207031 46.41199219 -10.97851562 46.84960938 C-12.3251827 47.89181259 -13.66346201 48.94483843 -15 50 C-16.55130081 45.34609757 -14.38900029 41.73825741 -12.8125 37.2265625 C-11.94663608 33.78808365 -11.59044154 32.244644 -13 29 C-15.17865772 27.20615168 -17.19298015 25.73313466 -19.5625 24.25 C-21.72259573 22.85215795 -23.86534506 21.43695826 -26 20 C-26 19.67 -26 19.34 -26 19 C-19.4 19 -12.8 19 -6 19 C-5.34 16.03 -4.68 13.06 -4 10 C-3.34589586 8.1260155 -2.64754077 6.26584649 -1.875 4.4375 C-1.52179688 3.59058594 -1.16859375 2.74367188 -0.8046875 1.87109375 C-0.53914063 1.25363281 -0.27359375 0.63617188 0 0 Z " fill="#F7C704" transform="translate(256,399)"/>
<path d="M0 0 C1.99775873 2.99663809 2.98997415 5.53662626 4.125 8.9375 C4.47820312 9.97777344 4.83140625 11.01804687 5.1953125 12.08984375 C6 15 6 15 6 19 C12.6 19 19.2 19 26 19 C22.55687411 22.44312589 20.11379744 24.79263746 16.1875 27.3125 C15.39730469 27.82425781 14.60710937 28.33601563 13.79296875 28.86328125 C13.20128906 29.23839844 12.60960937 29.61351563 12 30 C12.28484846 31.73030291 12.57819938 33.45920714 12.875 35.1875 C13.11863281 36.63189453 13.11863281 36.63189453 13.3671875 38.10546875 C13.91918692 41.01073759 13.91918692 41.01073759 15.0703125 43.67578125 C16 46 16 46 16 49 C11.18219072 47.32903446 8.06911978 44.69100488 4.28125 41.36328125 C2.10146317 39.79449183 2.10146317 39.79449183 -0.38671875 40.0078125 C-3.80688506 41.30635098 -6.47520013 43.31127665 -9.3125 45.5625 C-9.86228516 45.98724609 -10.41207031 46.41199219 -10.97851562 46.84960938 C-12.3251827 47.89181259 -13.66346201 48.94483843 -15 50 C-16.34661893 45.96014322 -14.99187931 43.2800304 -13.625 39.4375 C-13.39039063 38.75236328 -13.15578125 38.06722656 -12.9140625 37.36132812 C-12.0452366 34.84617587 -11.19140057 32.38280114 -10 30 C-10.71542969 29.75378906 -11.43085938 29.50757812 -12.16796875 29.25390625 C-15.32994926 27.85391212 -17.63725072 26.12129608 -20.3125 23.9375 C-21.19550781 23.22464844 -22.07851562 22.51179688 -22.98828125 21.77734375 C-23.65214844 21.19082031 -24.31601563 20.60429688 -25 20 C-25 19.67 -25 19.34 -25 19 C-18.73 19 -12.46 19 -6 19 C-5.34 16.03 -4.68 13.06 -4 10 C-3.34589586 8.1260155 -2.64754077 6.26584649 -1.875 4.4375 C-1.52179688 3.59058594 -1.16859375 2.74367187 -0.8046875 1.87109375 C-0.53914063 1.25363281 -0.27359375 0.63617188 0 0 Z " fill="#F8C803" transform="translate(256,58)"/>
<path d="M0 0 C0.66 0 1.32 0 2 0 C2.83857688 2.60258324 3.67103344 5.20685647 4.5 7.8125 C4.73847656 8.55048828 4.97695312 9.28847656 5.22265625 10.04882812 C6.19940136 13.13255196 7 15.74495809 7 19 C13.27 19 19.54 19 26 19 C22.82270675 22.17729325 20.21605594 24.74084058 16.6875 27.3125 C15.99011719 27.82425781 15.29273438 28.33601563 14.57421875 28.86328125 C14.05472656 29.23839844 13.53523438 29.61351563 13 30 C13.56392999 35.18815588 14.80285087 39.82126589 16.4765625 44.765625 C17 47 17 47 16 50 C15.10796875 49.278125 14.2159375 48.55625 13.296875 47.8125 C12.11498579 46.87449269 10.93267176 45.93702046 9.75 45 C8.87021484 44.28457031 8.87021484 44.28457031 7.97265625 43.5546875 C4.62385776 40.92080105 3.39260489 40 -1 40 C-3.36807115 41.60159402 -5.54160218 43.20416001 -7.75 45 C-8.35199219 45.47695312 -8.95398438 45.95390625 -9.57421875 46.4453125 C-11.05634779 47.62160539 -12.52910943 48.80968393 -14 50 C-14.66 49.67 -15.32 49.34 -16 49 C-15.72285156 48.29875 -15.44570312 47.5975 -15.16015625 46.875 C-12.98497292 41.17772268 -11.45919706 36.08436109 -11 30 C-12.28197266 29.06027344 -12.28197266 29.06027344 -13.58984375 28.1015625 C-14.70588611 27.27625386 -15.82176298 26.45072138 -16.9375 25.625 C-17.50146484 25.2125 -18.06542969 24.8 -18.64648438 24.375 C-22.88671875 21.2265625 -22.88671875 21.2265625 -24 19 C-17.73 19 -11.46 19 -5 19 C-4.67 16.69 -4.34 14.38 -4 12 C-3.3644775 9.83820258 -2.6786752 7.6903901 -1.9375 5.5625 C-1.57527344 4.51191406 -1.21304688 3.46132812 -0.83984375 2.37890625 C-0.56269531 1.59386719 -0.28554687 0.80882813 0 0 Z " fill="#F7C704" transform="translate(170,81)"/>
</svg>
